<?xml version="1.0" encoding="utf-8"?>
<!-- Generator: Adobe Illustrator 24.3.0, SVG Export Plug-In . SVG Version: 6.00 Build 0)  -->
<svg version="1.1" id="Layer_1" xmlns="http://www.w3.org/2000/svg" xmlns:xlink="http://www.w3.org/1999/xlink" x="0px" y="0px"
	 viewBox="0 0 439.5 470.4" style="enable-background:new 0 0 439.5 470.4;" xml:space="preserve">
<path d="M433.9,280.1c1.5,0,2.9-0.6,4-1.6c1-1.1,1.6-2.5,1.6-4v-22.4c0-1.5-0.6-2.9-1.6-4c-1.1-1.1-2.5-1.6-4-1.6H284.3
	c26.5-11,49.2-29.6,65.1-53.4s24.5-51.9,24.5-80.6c0.2-40-16.4-78.3-45.6-105.6c-1.7-1.6-3.4-3.1-5.1-4.6l0,0
	c-1-1.4-2.7-2.3-4.5-2.3H139.5c-1.7,0-3.2,0.8-4.3,2.1C96.7,34.8,78,85.2,85.9,135.1s41.2,92.1,87.9,111.3H91.9
	c-11.3,0-22.2,4.6-30.1,12.7c-7.9,8.1-12.2,19.1-11.9,30.4s5.2,22,13.5,29.7h-9.9c-19-0.1-36.6,10-46.2,26.4s-9.7,36.7-0.2,53.2
	c9.4,16.5,27,26.7,46,26.8v39.2c0,2.3,1.4,4.4,3.6,5.2c2.2,0.8,4.6,0.2,6.2-1.5l15.4-17.6l15.4,17.6l0,0c1.5,1.7,4,2.4,6.2,1.5
	c2.2-0.8,3.6-2.9,3.6-5.2v-39.2h280c1.5,0,2.9-0.6,4-1.6c1.1-1.1,1.6-2.5,1.6-4v-22.4c0-1.5-0.6-2.9-1.6-4s-2.5-1.6-4-1.6h-11.2
	v-39.2h11.2c1.5,0,2.9-0.6,4-1.6c1.1-1.1,1.6-2.5,1.6-4v-16.8h44.8c1.5,0,2.9-0.6,4-1.6c1-1.1,1.6-2.5,1.6-4v-22.4
	c0-1.5-0.6-2.9-1.6-4c-1.1-1-2.5-1.6-4-1.6h-5.6V280L433.9,280.1z M141.7,11.3h174.6l4.3,3.8c6.2,5.8,11.8,12.2,16.8,19
	c-7.5,0.8-14.8,2.7-21.7,5.6c-17.7,7-37.4,7-55.1,0c-10-4.2-20.7-6.3-31.5-6.1c-10.8-0.2-21.6,1.8-31.5,6
	c-8.7,3.7-18.1,5.5-27.6,5.2c-9.3,0.2-18.6-1.6-27.2-5.2c-6.9-2.9-14.2-4.8-21.7-5.6C127,25.7,134,18.1,141.7,11.3L141.7,11.3z
	 M95.3,112.5c0-23.8,6.3-47.1,18.4-67.6c8.5,0.1,16.9,1.9,24.8,5.2c10,4.2,20.7,6.3,31.5,6c10.8,0.2,21.6-1.8,31.5-6
	c8.7-3.7,18.1-5.4,27.5-5.2c9.4-0.2,18.8,1.5,27.6,5.2c10,4.2,20.9,6.3,31.8,6c10.8,0.3,21.6-1.8,31.5-5.9
	c7.8-3.3,16.1-5.1,24.5-5.3c21.1,35.9,24.3,79.7,8.6,118.3c-15.7,38.6-48.6,67.7-88.8,78.6c-40.2,10.9-83.3,2.5-116.4-22.9
	C114.7,193.6,95.3,154.2,95.3,112.5L95.3,112.5z M92.3,450l-9.8-11.2c-1.1-1.2-2.6-1.9-4.2-1.9c-1.6,0-3.1,0.7-4.2,1.9L64.3,450
	v-63.5h28V450z M377.9,414.5H103.5v-11.2h274.4V414.5z M361.1,392.1H103.5v-11.2c0-1.5-0.6-2.9-1.6-4c-1.1-1.1-2.5-1.6-4-1.6H58.7
	c-3.1,0-5.6,2.5-5.6,5.6v11.2c-7-0.1-13.4-3.9-16.9-10c-3.4-6.1-3.3-13.6,0.2-19.6c3.6-6,10.1-9.7,17.1-9.6h307.6V392.1z
	 M377.9,341.7H53.5c-11-0.1-21.2,5.7-26.8,15.2s-5.7,21.2-0.2,30.8s15.6,15.5,26.6,15.6v11.2c-15-0.1-28.8-8.2-36.3-21.2
	c-7.4-13-7.3-29,0.2-42c7.6-13,21.5-20.9,36.5-20.8h324.4V341.7z M428.3,319.3H91.8c-11,0-21.2-5.9-26.7-15.4s-5.5-21.3,0-30.8
	s15.7-15.4,26.7-15.4h336.5v11.2H97.4c-7,0-13.5,3.7-17,9.8c-3.5,6.1-3.5,13.5,0,19.6s10,9.8,17,9.8h330.9V319.3z M417.1,296.9H97.5
	c-4.6,0-8.4-3.8-8.4-8.4s3.8-8.4,8.4-8.4h319.6V296.9z"/>
<path d="M291.1,156.2l21.3,19.8c1.6,1.5,4,1.9,6,1s3.4-2.9,3.4-5.1v-47.6l0,0c0-2.2-1.3-4.2-3.4-5.1c-2-0.9-4.4-0.5-6,1l-21.3,19.9
	c-8.8-10-31.6-32.5-59.3-32.5c-35.3,0-57.1,36.2-58,37.7c-1,1.7-1,3.9,0,5.6c0.9,1.6,22.7,37.7,58,37.7
	C259.5,188.7,282.3,166.2,291.1,156.2L291.1,156.2z M310.7,137.1v22l-11.8-11.2L310.7,137.1z M185.3,148.3
	c5.6-7.9,22.7-29.4,46.5-29.4c23.7,0,44.2,21.1,51.5,29.4c-7.3,8.3-28,29.4-51.5,29.4s-40.9-21.8-46.5-29.6V148.3z"/>
<path d="M213.6,142.9c0,3.6-2.9,6.6-6.6,6.6s-6.6-2.9-6.6-6.6c0-3.6,2.9-6.6,6.6-6.6S213.6,139.3,213.6,142.9"/>
<path d="M185.6,96.5c0-7.4-2.9-14.5-8.2-19.8c-5.2-5.3-12.4-8.2-19.8-8.2s-14.5,2.9-19.8,8.2c-5.2,5.2-8.2,12.4-8.2,19.8
	s3,14.5,8.2,19.8c5.2,5.2,12.4,8.2,19.8,8.2s14.6-2.9,19.8-8.2C182.7,111,185.6,103.9,185.6,96.5z M157.6,113.3
	c-4.5,0-8.7-1.8-11.9-4.9c-3.1-3.1-4.9-7.4-4.9-11.9s1.8-8.7,4.9-11.9c3.2-3.2,7.4-4.9,11.9-4.9s8.7,1.8,11.9,4.9
	c3.2,3.1,4.9,7.4,4.9,11.9s-1.8,8.7-4.9,11.9C166.4,111.5,162.1,113.3,157.6,113.3z"/>
<path d="M133.9,130.5c-4.7,0-9.1,1.8-12.4,5.1c-3.3,3.3-5.1,7.7-5.1,12.4c0,4.6,1.8,9.1,5.1,12.4c3.3,3.3,7.7,5.1,12.4,5.1
	c4.6,0,9.1-1.8,12.4-5.1s5.1-7.7,5.1-12.4s-1.8-9.1-5.1-12.4C143,132.4,138.5,130.5,133.9,130.5z M133.9,154.3
	c-2.6,0-4.9-1.5-5.9-3.9s-0.4-5.1,1.4-6.9c1.8-1.8,4.6-2.3,6.9-1.3c2.4,1,3.9,3.3,3.9,5.9C140.1,151.5,137.3,154.3,133.9,154.3z"/>
</svg>
